<?xml version="1.0" encoding="UTF-8"?>
<svg version="1.1" xmlns="http://www.w3.org/2000/svg" width="425" height="425">
<path d="M0 0 C1.05388412 -0.00101212 1.05388412 -0.00101212 2.12905884 -0.00204468 C36.08815614 0.0494034 68.93754409 7.95602888 98.8125 24.25 C99.7082373 24.72904785 99.7082373 24.72904785 100.62207031 25.21777344 C146.11565243 49.63803414 180.08576148 91.76146596 196.8125 140.25 C197.06515625 140.98186523 197.3178125 141.71373047 197.578125 142.46777344 C214.55767 192.86400631 209.23551222 250.76424568 186.36035156 298.37182617 C161.6828492 348.00183249 117.02664288 385.26312261 64.91015625 402.9375 C44.37170663 409.61392752 23.16950587 412.48127972 1.625 412.5 C0.92241058 412.50067474 0.21982117 412.50134949 -0.50405884 412.50204468 C-34.46315614 412.4505966 -67.31254409 404.54397112 -97.1875 388.25 C-97.7846582 387.93063477 -98.38181641 387.61126953 -98.99707031 387.28222656 C-144.49065243 362.86196586 -178.46076148 320.73853404 -195.1875 272.25 C-195.56648437 271.15220215 -195.56648437 271.15220215 -195.953125 270.03222656 C-212.93267 219.63599369 -207.61051222 161.73575432 -184.73535156 114.12817383 C-160.0578492 64.49816751 -115.40164288 27.23687739 -63.28515625 9.5625 C-42.74670663 2.88607248 -21.54450587 0.01872028 0 0 Z " fill="#010101" transform="translate(211.1875,5.75)"/>
<path d="M0 0 C1.05388412 -0.00101212 1.05388412 -0.00101212 2.12905884 -0.00204468 C36.08815614 0.0494034 68.93754409 7.95602888 98.8125 24.25 C99.7082373 24.72904785 99.7082373 24.72904785 100.62207031 25.21777344 C146.11565243 49.63803414 180.08576148 91.76146596 196.8125 140.25 C197.06515625 140.98186523 197.3178125 141.71373047 197.578125 142.46777344 C214.55767 192.86400631 209.23551222 250.76424568 186.36035156 298.37182617 C161.6828492 348.00183249 117.02664288 385.26312261 64.91015625 402.9375 C44.37170663 409.61392752 23.16950587 412.48127972 1.625 412.5 C0.92241058 412.50067474 0.21982117 412.50134949 -0.50405884 412.50204468 C-34.46315614 412.4505966 -67.31254409 404.54397112 -97.1875 388.25 C-97.7846582 387.93063477 -98.38181641 387.61126953 -98.99707031 387.28222656 C-144.49065243 362.86196586 -178.46076148 320.73853404 -195.1875 272.25 C-195.56648437 271.15220215 -195.56648437 271.15220215 -195.953125 270.03222656 C-212.93267 219.63599369 -207.61051222 161.73575432 -184.73535156 114.12817383 C-160.0578492 64.49816751 -115.40164288 27.23687739 -63.28515625 9.5625 C-42.74670663 2.88607248 -21.54450587 0.01872028 0 0 Z M-57.1875 14.25 C-58.03989258 14.5190918 -58.89228516 14.78818359 -59.77050781 15.06542969 C-79.0736289 21.30247319 -97.82860237 30.1596777 -114.1875 42.25 C-115.23679687 43.01699219 -116.28609375 43.78398438 -117.3671875 44.57421875 C-125.09782572 50.32085758 -132.23035601 56.59698057 -139.1875 63.25 C-140.57775391 64.56097656 -140.57775391 64.56097656 -141.99609375 65.8984375 C-149.14951593 72.81848562 -155.31221605 80.24299511 -161.1875 88.25 C-161.59822754 88.80574707 -162.00895508 89.36149414 -162.43212891 89.93408203 C-180.34414364 114.51170354 -191.96001133 143.35413397 -197.1875 173.25 C-197.52201172 175.03083984 -197.52201172 175.03083984 -197.86328125 176.84765625 C-205.6566959 226.41801472 -192.24802167 280.63456658 -163.3125 321.5 C-150.36242436 339.25016251 -134.99912926 355.35676935 -117.1875 368.25 C-116.63755371 368.65492676 -116.08760742 369.05985352 -115.52099609 369.47705078 C-96.99164947 382.98701415 -76.08731713 392.68090799 -54.1875 399.25 C-53.47368164 399.46978516 -52.75986328 399.68957031 -52.02441406 399.91601562 C-15.09514173 411.06927348 27.66026113 409.07304321 63.8125 396.25 C64.66360352 395.95609375 65.51470703 395.6621875 66.39160156 395.359375 C94.73785696 385.48889728 119.16902797 369.9473494 140.8125 349.25 C141.73933594 348.37601562 142.66617187 347.50203125 143.62109375 346.6015625 C179.30535686 312.08146684 200.00625213 261.83732302 200.98046875 212.41015625 C201.41360001 155.82662537 181.77688845 105.2876749 142.34106445 64.49536133 C135.00180776 57.04314955 127.2914682 50.36857482 118.8125 44.25 C118.24128418 43.83443848 117.67006836 43.41887695 117.08154297 42.99072266 C100.17613548 30.83418489 81.50215678 21.89163254 61.8125 15.25 C60.71470215 14.87536621 60.71470215 14.87536621 59.59472656 14.49316406 C22.71307014 2.23328657 -20.23290446 2.50867312 -57.1875 14.25 Z " fill="#F9F9F9" transform="translate(211.1875,5.75)"/>
<path d="M0 0 C1.26684465 0.92755521 2.53055294 1.85939478 3.79296875 2.79296875 C4.49703857 3.31141357 5.2011084 3.8298584 5.92651367 4.36401367 C7.88050831 5.90572073 9.59300806 7.51688472 11.3125 9.3125 C14.19469287 12.30021938 17.26389073 14.89963389 20.5 17.5 C24.35407918 20.60219197 27.909956 23.78890161 31.34765625 27.33984375 C33.66623953 29.6693896 36.15270527 31.78019156 38.640625 33.92578125 C41.59864473 36.52629197 44.4868951 39.19734226 47.375 41.875 C52.87152174 46.96791165 58.41655118 52.00235564 64 57 C70.0806946 62.44272008 76.11055661 67.93558522 82.1015625 73.4765625 C91.88828006 82.52465987 101.71635676 91.51599433 112 100 C109.29783472 103.59037702 106.53381082 106.35895165 103 109.125 C98.85009882 112.44712834 94.88395448 115.87741697 91 119.5 C86.41294418 123.76974018 81.66552295 127.75762521 76.78125 131.6875 C73.75980812 134.1997101 70.87558227 136.82400827 68 139.5 C63.41239887 143.76918152 58.66557272 147.75758517 53.78125 151.6875 C50.75980664 154.19971133 47.87559922 156.82402457 45 159.5 C40.38998361 163.7895776 35.62216764 167.80410897 30.71484375 171.75390625 C26.94495533 174.87287869 23.37535549 178.19371847 19.77734375 181.5078125 C16.09797246 184.80941431 12.27296412 187.90876796 8.41015625 190.9921875 C5.96121763 192.96048736 5.96121763 192.96048736 3.80859375 195.2578125 C2 197 2 197 0 197 C-0.32450886 191.52367295 -0.55859532 186.05306953 -0.71411133 180.56933594 C-0.77898865 178.71027078 -0.86734059 176.85185601 -0.98071289 174.99511719 C-1.94598913 158.76449943 -1.94598913 158.76449943 2.74731445 153.19238281 C5.39785681 150.55498069 8.25641926 148.30361478 11.32522583 146.17416382 C13.94048168 144.34063972 16.3549981 142.28893383 18.8125 140.25 C19.70195312 139.53585937 20.59140625 138.82171875 21.5078125 138.0859375 C24.5709573 135.52211411 27.33857347 132.74793657 30.12109375 129.88671875 C32.54902569 127.44869145 35.12713021 125.22331516 37.734375 122.98046875 C41.06636436 120.06785046 44.30988855 117.059859 47.56176758 114.05859375 C50.47430422 111.37707853 53.42498764 108.75582339 56.4375 106.1875 C59.6895721 103.37673205 62.35681226 100.38658429 65 97 C64.41444336 96.73662842 63.82888672 96.47325684 63.22558594 96.2019043 C60.90143714 94.94677217 59.29392262 93.59314046 57.390625 91.76953125 C56.71773438 91.13080078 56.04484375 90.49207031 55.3515625 89.83398438 C54.65804687 89.16689453 53.96453125 88.49980469 53.25 87.8125 C47.94084442 82.74054053 42.56425276 77.79143988 37 73 C36.3925293 72.47575439 35.78505859 71.95150879 35.15917969 71.41137695 C33.964171 70.38090079 32.7687801 69.3508677 31.57299805 68.32128906 C17.63029224 56.30371111 17.63029224 56.30371111 11.70605469 50.48413086 C9.93926768 48.87009445 9.93926768 48.87009445 7.44238281 47.39282227 C3.74481427 44.79830714 0.6080794 42.46493214 -0.52005005 37.89190674 C-1.25521294 31.74908195 -0.91045071 25.60054231 -0.625 19.4375 C-0.57477713 17.55155038 -0.52916064 15.66547215 -0.48828125 13.77929688 C-0.37869508 9.18299507 -0.20653071 4.59292516 0 0 Z " fill="#FBFBFB" transform="translate(283,122)"/>
<path d="M0 0 C2.77529247 37.53316212 2.77529247 37.53316212 -3.28125 45.75 C-6.45024472 48.97294308 -9.96183632 51.42578107 -13.86547852 53.68237305 C-17.61898138 55.99938723 -20.7413648 59.04751986 -24 62 C-25.10097042 62.94407343 -26.20620726 63.88320278 -27.31640625 64.81640625 C-34.96645022 71.28154392 -42.33877398 77.98882347 -49.63671875 84.84765625 C-60.22643857 94.79521781 -60.22643857 94.79521781 -65 97 C-65 97.99 -65 98.98 -65 100 C-64.40703125 100.26425781 -63.8140625 100.52851563 -63.203125 100.80078125 C-60.91970946 102.04370425 -59.52573277 103.30401646 -57.75 105.1875 C-54.72958372 108.29731549 -51.58261811 111.15498556 -48.30078125 113.984375 C-45.4922698 116.44480269 -42.74538121 118.96974992 -40 121.5 C-36.69986653 124.53904534 -33.3905024 127.56156459 -30 130.5 C-26.60948902 133.43844285 -23.30041216 136.46124951 -20 139.5 C-11.84338505 147.23831172 -11.84338505 147.23831172 -2.91699219 154.01098633 C-0.97368155 155.64125698 -0.11498303 156.55816897 0.52883911 159.03210449 C0.69413867 161.52732964 0.67479152 163.9578638 0.5859375 166.45703125 C0.57744781 167.35999435 0.56895813 168.26295746 0.56021118 169.19328308 C0.52671545 172.06758692 0.45144586 174.93904933 0.375 177.8125 C0.34489533 179.76493334 0.3175204 181.71741081 0.29296875 183.66992188 C0.22693687 188.44770364 0.12344347 193.22337069 0 198 C-1.26290493 197.06701261 -2.52382704 196.13134093 -3.78393555 195.19458008 C-4.48632858 194.67382401 -5.18872162 194.15306793 -5.91239929 193.61653137 C-9.07110901 191.17058789 -11.93101784 188.44916309 -14.8125 185.6875 C-19.80603479 180.97205229 -24.92498074 176.536599 -30.2890625 172.2421875 C-33.28904531 169.76093371 -36.1515203 167.15134044 -39 164.5 C-42.73325033 161.02578664 -46.5237138 157.69931074 -50.5 154.5 C-54.47629426 151.30068278 -58.26668298 147.97415055 -62 144.5 C-66.60655425 140.21364389 -71.37127273 136.20247989 -76.2734375 132.25390625 C-80.12012709 129.07404967 -83.78155918 125.70683001 -87.45703125 122.33203125 C-91.99425655 118.17116565 -96.61450515 114.12454273 -101.3828125 110.23046875 C-101.97852051 109.73925537 -102.57422852 109.24804199 -103.18798828 108.74194336 C-104.38068447 107.75992148 -105.57946679 106.78523751 -106.78466797 105.81860352 C-108.24631152 104.61107436 -109.63047002 103.31107444 -111 102 C-111 99 -111 99 -108.76171875 96.6171875 C-107.74516477 95.69403016 -106.71977821 94.78054026 -105.6875 93.875 C-105.14569092 93.38854004 -104.60388184 92.90208008 -104.0456543 92.40087891 C-100.5496893 89.28781742 -96.96009963 86.30961274 -93.3125 83.375 C-88.94751262 79.86294119 -85.00771944 76.11207672 -81.09765625 72.10546875 C-78.60415571 69.60268142 -75.97668552 67.31099618 -73.296875 65.01171875 C-70.31175546 62.39720079 -67.4080275 59.69966029 -64.5 57 C-60.44005729 53.23424769 -56.34587741 49.52779234 -52.15625 45.90625 C-49.22759587 43.31714998 -46.36603327 40.65803766 -43.5 38 C-39.41701127 34.21366094 -35.30230186 30.48232867 -31.08984375 26.83984375 C-28.35629282 24.43329705 -25.67892604 21.96689789 -23 19.5 C-19.00749682 15.82545632 -14.98902397 12.18860985 -10.88671875 8.63671875 C-9.50678033 7.43962932 -8.13556959 6.23245846 -6.76953125 5.01953125 C-5.67705078 4.05080078 -5.67705078 4.05080078 -4.5625 3.0625 C-3.90378906 2.47597656 -3.24507813 1.88945313 -2.56640625 1.28515625 C-1 0 -1 0 0 0 Z " fill="#FBFBFB" transform="translate(141,122)"/>
<path d="M0 0 C3.41659491 -0.05816623 6.83306205 -0.09365195 10.25 -0.125 C11.21808594 -0.14175781 12.18617188 -0.15851563 13.18359375 -0.17578125 C14.11816406 -0.18222656 15.05273438 -0.18867188 16.015625 -0.1953125 C16.87446289 -0.20578613 17.73330078 -0.21625977 18.61816406 -0.22705078 C21.21730884 0.02071517 22.80451408 0.60470931 25 2 C26.50606515 5.01213029 26.12160331 8.11282622 26.09765625 11.4140625 C26.0962413 12.14370209 26.09482635 12.87334167 26.09336853 13.62509155 C26.08776531 15.95843585 26.07521235 18.29168464 26.0625 20.625 C26.05748541 22.20572778 26.05292243 23.78645707 26.04882812 25.3671875 C26.03779484 29.24482854 26.02052811 33.12239807 26 37 C21.75035873 37.14513802 17.50135365 37.23402037 13.25 37.3125 C12.0434375 37.35439453 10.836875 37.39628906 9.59375 37.43945312 C8.43359375 37.45556641 7.2734375 37.47167969 6.078125 37.48828125 C5.00981445 37.51446533 3.94150391 37.54064941 2.84082031 37.56762695 C0 37 0 37 -2.31738281 34.65698242 C-5.08450518 30.28748261 -5.73002272 26.0909479 -5 21 C-3.50251293 18.34316811 -2.15347249 16.15347249 0 14 C2.86267567 13.92674832 5.700719 13.90761795 8.5625 13.9375 C9.36880859 13.94201172 10.17511719 13.94652344 11.00585938 13.95117188 C13.00393756 13.96299482 15.00197783 13.98093086 17 14 C16.67 11.36 16.34 8.72 16 6 C10.72 6 5.44 6 0 6 C0 4.02 0 2.04 0 0 Z " fill="#F2F2F2" transform="translate(219,203)"/>
<path d="M0 0 C1.49660156 -0.00966797 1.49660156 -0.00966797 3.0234375 -0.01953125 C10.26245993 0.08721037 10.26245993 0.08721037 13.625 2.5390625 C16.24311787 6.51086631 16.51269784 9.94120108 16 14.625 C13.84375 19.78125 13.84375 19.78125 12 21.625 C10.65732587 21.71131874 9.31025678 21.73206473 7.96484375 21.72265625 C7.15595703 21.71943359 6.34707031 21.71621094 5.51367188 21.71289062 C4.66353516 21.70451172 3.81339844 21.69613281 2.9375 21.6875 C2.08349609 21.68298828 1.22949219 21.67847656 0.34960938 21.67382812 C-1.76695663 21.66200373 -3.88348685 21.64406769 -6 21.625 C-6 24.595 -6 27.565 -6 30.625 C0.27 30.955 6.54 31.285 13 31.625 C13 33.605 13 35.585 13 37.625 C9.25026094 37.74122939 5.50098536 37.8122595 1.75 37.875 C0.68652344 37.90851563 -0.37695312 37.94203125 -1.47265625 37.9765625 C-2.49746094 37.98945313 -3.52226562 38.00234375 -4.578125 38.015625 C-5.52075195 38.03657227 -6.46337891 38.05751953 -7.43457031 38.07910156 C-10.75525307 37.49131417 -11.89287283 36.19294931 -14 33.625 C-16.09640363 29.43219275 -15.27372271 23.98174244 -15.3125 19.375 C-15.34150391 18.24191406 -15.37050781 17.10882813 -15.40039062 15.94140625 C-15.43665707 11.18213281 -15.26640639 7.37656289 -13.66796875 2.8671875 C-9.45089019 -0.67688731 -5.33057287 -0.17217613 0 0 Z " fill="#F0F0F0" transform="translate(194,202.375)"/>
<path d="M0 0 C2.29760553 0.03984287 4.59483332 0.11134253 6.890625 0.2109375 C8.65212891 0.25154297 8.65212891 0.25154297 10.44921875 0.29296875 C13.3482066 0.36367577 16.2434897 0.46231794 19.140625 0.5859375 C19.140625 2.5659375 19.140625 4.5459375 19.140625 6.5859375 C12.540625 6.9159375 5.940625 7.2459375 -0.859375 7.5859375 C-0.859375 9.8959375 -0.859375 12.2059375 -0.859375 14.5859375 C0.30980469 14.52792969 1.47898438 14.46992188 2.68359375 14.41015625 C4.2317308 14.36324301 5.77991117 14.31774452 7.328125 14.2734375 C8.09705078 14.23154297 8.86597656 14.18964844 9.65820312 14.14648438 C13.82301662 14.05711069 15.64774235 14.24053657 19.15625 16.69921875 C21.51256516 20.12700793 21.78509131 21.95869273 21.703125 26.0859375 C21.70505859 27.74109375 21.70505859 27.74109375 21.70703125 29.4296875 C21.01391348 33.29202654 19.91031589 34.8295139 17.140625 37.5859375 C14.29980469 38.15356445 14.29980469 38.15356445 11.0625 38.07421875 C9.32226562 38.05004883 9.32226562 38.05004883 7.546875 38.02539062 C5.73703125 37.96254883 5.73703125 37.96254883 3.890625 37.8984375 C2.66859375 37.87587891 1.4465625 37.85332031 0.1875 37.83007812 C-2.82936002 37.77115508 -5.84375015 37.68893015 -8.859375 37.5859375 C-8.859375 35.6059375 -8.859375 33.6259375 -8.859375 31.5859375 C-1.599375 31.5859375 5.660625 31.5859375 13.140625 31.5859375 C13.140625 28.9459375 13.140625 26.3059375 13.140625 23.5859375 C11.88765625 23.57175781 10.6346875 23.55757812 9.34375 23.54296875 C7.69267172 23.49606312 6.04163118 23.44781575 4.390625 23.3984375 C3.565625 23.39263672 2.740625 23.38683594 1.890625 23.38085938 C-4.25043763 23.15799823 -4.25043763 23.15799823 -7.375 20.22265625 C-9.81662743 15.88555489 -10.79912145 11.50882944 -9.859375 6.5859375 C-7.77770688 1.0725098 -5.58034432 0.18767878 0 0 Z " fill="#E9E9E9" transform="translate(152.859375,202.4140625)"/>
<path d="M0 0 C6.6 0 13.2 0 20 0 C20 14.19 20 28.38 20 43 C23.3 43 26.6 43 30 43 C30 44.98 30 46.96 30 49 C20.1 49 10.2 49 0 49 C0 47.02 0 45.04 0 43 C3.3 43 6.6 43 10 43 C10 30.79 10 18.58 10 6 C6.7 6 3.4 6 0 6 C0 4.02 0 2.04 0 0 Z " fill="#E8E8E8" transform="translate(250,191)"/>
<path d="M0 0 C0 3.96 0 7.92 0 12 C-3.96 12 -7.92 12 -12 12 C-13.10647808 9.78704384 -13.19588368 8.45327301 -13.25 6 C-13.27578125 5.29875 -13.3015625 4.5975 -13.328125 3.875 C-13.21984375 3.25625 -13.1115625 2.6375 -13 2 C-8.61501596 -0.92332269 -5.2225328 -0.1356502 0 0 Z " fill="#0A0A0A" transform="translate(236,222)"/>
<path d="M0 0 C1.65322266 0.01740234 1.65322266 0.01740234 3.33984375 0.03515625 C4.99693359 0.04869141 4.99693359 0.04869141 6.6875 0.0625 C7.54214844 0.07410156 8.39679688 0.08570313 9.27734375 0.09765625 C9.30423591 1.57672517 9.32368996 3.05593108 9.33984375 4.53515625 C9.35144531 5.35886719 9.36304688 6.18257812 9.375 7.03125 C9.27734375 9.09765625 9.27734375 9.09765625 8.27734375 10.09765625 C6.25770176 10.17009678 4.23567251 10.18142813 2.21484375 10.16015625 C1.11011719 10.15113281 0.00539062 10.14210937 -1.1328125 10.1328125 C-2.41478516 10.11541016 -2.41478516 10.11541016 -3.72265625 10.09765625 C-3.74954841 8.61858733 -3.76900246 7.13938142 -3.78515625 5.66015625 C-3.79675781 4.83644531 -3.80835938 4.01273438 -3.8203125 3.1640625 C-3.66956839 -0.02568279 -3.22197711 0.11556589 0 0 Z " fill="#0B0B0B" transform="translate(191.72265625,208.90234375)"/>
<path d="M0 0 C0.99 0.495 0.99 0.495 2 1 C1.01 1.495 1.01 1.495 0 2 C0 1.34 0 0.68 0 0 Z M-21 3 C-14.4 3 -7.8 3 -1 3 C-1 4.32 -1 5.64 -1 7 C-7.6 7 -14.2 7 -21 7 C-21 5.68 -21 4.36 -21 3 Z " fill="#FDFDFD" transform="translate(166,232)"/>
<path d="M0 0 C0.66 0.33 1.32 0.66 2 1 C1.36191406 1.61488281 0.72382812 2.22976562 0.06640625 2.86328125 C-0.75988281 3.67152344 -1.58617188 4.47976562 -2.4375 5.3125 C-3.26121094 6.11300781 -4.08492187 6.91351563 -4.93359375 7.73828125 C-7.19403477 9.90470808 -7.19403477 9.90470808 -8 13 C-10.41009108 16.17117247 -13.23028075 16.97903437 -17 18 C-17.99 18 -18.98 18 -20 18 C-14.2013749 12.70235906 -8.39463114 7.42391477 -2.4609375 2.27734375 C-1.61953273 1.54167701 -0.79030613 0.79030613 0 0 Z " fill="#232323" transform="translate(123,177)"/>
<path d="M0 0 C0.66 0.33 1.32 0.66 2 1 C0.35 2.98 -1.3 4.96 -3 7 C-2.01 7.33 -1.02 7.66 0 8 C-1.65 9.65 -3.3 11.3 -5 13 C-6.32 11.68 -7.64 10.36 -9 9 C-6.03 6.03 -3.06 3.06 0 0 Z " fill="#EBEBEB" transform="translate(116,143)"/>
<path d="M0 0 C2.64 1.98 5.28 3.96 8 6 C6.02 6.99 6.02 6.99 4 8 C3.67 7.01 3.34 6.02 3 5 C2.01 5 1.02 5 0 5 C-0.66 4.01 -1.32 3.02 -2 2 C-1.34 1.34 -0.68 0.68 0 0 Z " fill="#E6E6E6" transform="translate(313,149)"/>
<path d="M0 0 C1.32 1.32 2.64 2.64 4 4 C2.68 4.99 1.36 5.98 0 7 C-0.99 6.01 -1.98 5.02 -3 4 C-2.01 2.68 -1.02 1.36 0 0 Z " fill="#E0E0E0" transform="translate(391,219)"/>
<path d="M0 0 C0.66 0.33 1.32 0.66 2 1 C-0.97 3.97 -3.94 6.94 -7 10 C-7 7 -7 7 -5.46875 5.17578125 C-4.8190625 4.56089844 -4.169375 3.94601563 -3.5 3.3125 C-2.8503125 2.68988281 -2.200625 2.06726563 -1.53125 1.42578125 C-0.77328125 0.72001953 -0.77328125 0.72001953 0 0 Z M-9 10 C-8.34 10.66 -7.68 11.32 -7 12 C-7.99 12 -8.98 12 -10 12 C-9.67 11.34 -9.34 10.68 -9 10 Z " fill="#171717" transform="translate(123,177)"/>
<path d="M0 0 C4.75 0.75 4.75 0.75 7 3 C4.525 4.485 4.525 4.485 2 6 C0 2.25 0 2.25 0 0 Z " fill="#0F0F0F" transform="translate(119,133)"/>
<path d="M0 0 C1.65 1.65 3.3 3.3 5 5 C2 7 2 7 0 8 C-0.66 7.34 -1.32 6.68 -2 6 C-1.34 6 -0.68 6 0 6 C0 4.02 0 2.04 0 0 Z " fill="#111111" transform="translate(80,267)"/>
<path d="M0 0 C3.36720387 1.39332574 4.9859524 2.9789286 7 6 C4 6 4 6 1.3125 3.5 C0.549375 2.675 -0.21375 1.85 -1 1 C-0.67 0.67 -0.34 0.34 0 0 Z " fill="#191919" transform="translate(106,246)"/>
<path d="M0 0 C0 3.57575896 -1.08840607 5.05295935 -3 8 C-4.32 7.67 -5.64 7.34 -7 7 C-4.69 4.69 -2.38 2.38 0 0 Z " fill="#E3E3E3" transform="translate(61,193)"/>
</svg>
